<svg xmlns="http://www.w3.org/2000/svg" aria-hidden="true" style="position:absolute;width:0;height:0;overflow:hidden">
    <defs>
        <symbol id="icon-antenna" viewBox="0 0 32 32">
            <path fill="#212121" d="m30.773 22.098-8.443-8.505.937-4.615c.225.09.485.144.758.146h.007a2.159 2.159 0 1 0-2.133-2.184v.026c0 .259.046.508.13.738l-.005-.015-4.96.605L8.973.161a.53.53 0 0 0-.376-.16.531.531 0 0 0-.373.155L6.711 1.66a.534.534 0 0 0 0 .754l.814.826a14.943 14.943 0 0 0 2.519 17.663.513.513 0 0 0 .146.098 2.986 2.986 0 0 0-.052.546v6.188h-6.4a2.67 2.67 0 0 0-2.667 2.667v1.067c0 .295.239.533.533.533h24.533a.533.533 0 0 0 .533-.533v-1.067a2.67 2.67 0 0 0-2.667-2.667h-6.4v-2.742a14.64 14.64 0 0 0 3.047.32h.002a14.784 14.784 0 0 0 7.117-1.822l-.077.039.818.823a.534.534 0 0 0 .377.16.531.531 0 0 0 .373-.155l1.513-1.504a.534.534 0 0 0 0-.754zM23.28 6.233a1.066 1.066 0 1 1 .752 1.822h-.003a1.067 1.067 0 0 1-.747-1.823h-.002zm-1.256 3.505-.598 2.946-1.175-1.182 1.774-1.763zm-.605-.902-1.92 1.909-1.485-1.493 3.405-.415zM24.004 28.8a1.6 1.6 0 0 1 1.6 1.6v.533H2.137V30.4a1.6 1.6 0 0 1 1.6-1.6h20.267zm-7.467-2.133v1.067h-5.333v-1.067h5.333zM11.204 25.6v-4.053c0-1.294 1.196-2.347 2.667-2.347s2.667 1.053 2.667 2.347V25.6h-5.333zm6.4-1.696v-2.357c0-1.882-1.675-3.413-3.733-3.413h-.058c-1.353 0-2.54.707-3.213 1.771l-.009.016A13.87 13.87 0 0 1 8.312 4.034l18.602 18.708c-1.823.947-3.98 1.502-6.266 1.502-1.079 0-2.128-.124-3.136-.357l.093.018zm11.289-.684L7.836 2.039l.755-.752 7.935 7.98c.004 0 .006.007.01.01l13.115 13.191-.757.752z" style="fill:var(--color1, #212121)"/>
            <path fill="#2196f3" d="M13.876 20.267h-.005a1.6 1.6 0 1 0-.004 3.2h.005a1.6 1.6 0 1 0 .004-3.2zm.373 1.978a.53.53 0 0 1-.376.155h-.002a.534.534 0 0 1-.001-1.067.532.532 0 0 1 .373.911h.005z" style="fill:var(--color2, #2196f3)"/>
        </symbol>
        <symbol id="icon-astronaut" viewBox="0 0 32 32">
            <path fill="#2196f3" d="M31.974 4.524a.535.535 0 0 0-.427-.362h-.003l-1.91-.278-.855-1.731c-.179-.365-.777-.365-.956 0l-.855 1.731-1.91.278a.535.535 0 0 0-.43.359l-.001.004a.534.534 0 0 0 .135.547l1.383 1.348-.326 1.903a.536.536 0 0 0 .777.561l-.003.001 1.709-.899 1.709.899a.536.536 0 0 0 .775-.566v.003l-.326-1.903 1.383-1.348a.535.535 0 0 0 .134-.55l.001.004zm-2.463 1.327a.533.533 0 0 0-.153.476v-.003l.191 1.114-1-.526a.52.52 0 0 0-.248-.061H28.3c-.085 0-.17.02-.249.061l-1.001.526.191-1.114a.533.533 0 0 0-.153-.472l-.81-.789 1.119-.163a.533.533 0 0 0 .4-.289l.001-.003.5-1.013.5 1.013a.535.535 0 0 0 .402.292l1.119.163-.809.789zm-3.377 14.671h-1.067v1.067h1.067v-1.067zm0 2.134h-1.067v1.067h1.067v-1.067zm1.066-1.067h-1.067v1.067H27.2v-1.067zm-2.133 0H24v1.067h1.067v-1.067zm-2.667 4.8h-1.067v1.067H22.4v-1.067zm0 2.133h-1.067v1.067H22.4v-1.067zm1.067-1.066H22.4v1.067h1.067v-1.067zm-2.134 0h-1.067v1.067h1.067v-1.067zM16 24.256h-1.067v1.067H16v-1.067zm0 2.133h-1.067v1.067H16v-1.067zm1.067-1.067H16v1.067h1.067v-1.067zm-2.134 0h-1.067v1.067h1.067v-1.067zm-9.066-19.2H4.8v1.067h1.067V6.122zm0 2.133H4.8v1.067h1.067V8.255z" style="fill:var(--color2, #2196f3)"/>
            <path fill="#2196f3" d="M6.933 7.189H5.866v1.067h1.067V7.189zm-2.133 0H3.733v1.067H4.8V7.189z" style="fill:var(--color2, #2196f3)"/>
            <path fill="#212121" d="M24.715 14.159a1.775 1.775 0 0 0-1.188-.705 1.778 1.778 0 0 0-1.34.352l-1.252.96-1.898 1.417-1.358-.541c2.421-1.086 4.114-3.508 4.114-6.32 0-3.823-3.123-6.933-6.961-6.933s-6.961 3.11-6.961 6.933a6.86 6.86 0 0 0 1.12 3.758l-2.769-.024c-.009 0-.015.004-.023.005a.555.555 0 0 0-.159.032l.004-.001-.038.013c-.006.003-.013.003-.019.006l-3.233 1.596-.001.001-1.893.911a.429.429 0 0 0-.064.036l.001-.001a1.779 1.779 0 0 0-.598 2.295c.22.429.595.745 1.056.889a1.776 1.776 0 0 0 1.378-.128l1.388-.738 2.264-1.169 1.357-.008L2.2 22.211l-.002.001-1.339 1.333c-.316.315-.49.732-.49 1.178s.174.863.49 1.179c.325.323.752.485 1.179.485s.854-.162 1.18-.485l1.314-1.309 1.741-1.3.901.897-1.762 1.754-.002.001-1.339 1.333c-.316.315-.49.732-.49 1.178s.174.863.49 1.179c.325.323.753.485 1.18.485s.855-.162 1.18-.485l3.482-3.467.001-.002 1.01-1-.004-.004c.006-.006.015-.009.022-.015l5.166-5.658 3.471.494a.558.558 0 0 0 .073.005h.002a.52.52 0 0 0 .187-.038c.018-.006.033-.015.05-.023.019-.01.039-.015.058-.027l3.213-2.133c.012-.008.018-.021.029-.029.013-.01.029-.014.041-.026l1.271-1.191c.662-.62.753-1.635.212-2.362zM2.13 17.77a.714.714 0 0 1-.558.052.717.717 0 0 1-.213-1.26l1.314-.632.449 1.312-.992.528zm3.498-1.828-1.548.8-.439-1.283 2.027-1.001-.04 1.484zm15.099-6.62a5.79 5.79 0 0 1-.599 2.559l-4.181-1.899a1.863 1.863 0 0 0-.788-1.388l1.464-4.86c2.378.756 4.105 2.974 4.105 5.588zm-11.789 0c0-3.235 2.644-5.867 5.894-5.867.253 0 .5.021.745.052l-1.432 4.754c-.019-.001-.037-.006-.057-.006-1.033 0-1.873.837-1.873 1.867s.84 1.867 1.873 1.867c.694 0 1.294-.383 1.618-.945l3.862 1.755a5.894 5.894 0 0 1-4.737 2.39c-3.25 0-5.894-2.632-5.894-5.867zm5.956.8c0 .441-.362.8-.806.8s-.806-.359-.806-.8c0-.441.362-.8.806-.8s.806.359.806.8zM2.465 25.146a.608.608 0 0 1-.854.001.592.592 0 0 1 0-.844l.962-.958.851.848-.959.955zm3.214 3.734a.608.608 0 0 1-.855.001.592.592 0 0 1 0-.844l.963-.959.852.848-.96.955zm3.481-3.469-.002.001-1.765 1.76-.852-.848 1.763-1.756.002-.001c.04-.04.065-.088.09-.135.007-.014.02-.026.026-.04.017-.041.019-.085.026-.129.003-.025.014-.047.014-.073 0-.036-.013-.07-.02-.106-.006-.032-.006-.065-.019-.095a.55.55 0 0 0-.091-.138c-.01-.012-.014-.027-.025-.038h-.001l-.001-.002-1.607-1.6c-.017-.017-.039-.024-.058-.038a.507.507 0 0 0-.087-.058.515.515 0 0 0-.093-.033.507.507 0 0 0-.103-.02.5.5 0 0 0-.095.005.53.53 0 0 0-.104.02.477.477 0 0 0-.094.045c-.02.011-.042.015-.061.029L4.23 23.485l-.901-.897 2.399-2.386 4.361 4.289-.928.919zm6.819-7.017c-.015-.002-.03.004-.045.003l-.026-.001a.562.562 0 0 0-.092.008h.003a.536.536 0 0 0-.088.021.541.541 0 0 0-.181.109c-.013.011-.028.017-.04.029l-4.698 5.146-4.328-4.257 2.833-2.818a.534.534 0 0 0-.379-.911v-.001l-2.219.013.028-1.607 3.104.027a6.947 6.947 0 0 0 4.981 2.101c.437 0 .864-.045 1.279-.123.04.032.079.065.13.085l2.41.96.331 1.644-3.003-.427zm4.041.178-.313-1.558 1.446-1.08.947 1.257-2.08 1.381zm3.754-2.831-.838.785-.931-1.236.831-.637a.735.735 0 0 1 .543-.143.718.718 0 0 1 .48.284.713.713 0 0 1-.085.947z" style="fill:var(--color1, #212121)"/>
            <path fill="#212121" d="m13.602 18.544-2.143-2.133a.534.534 0 0 0-.753 0l-2.142 2.133a.531.531 0 0 0 0 .756l2.142 2.133a.536.536 0 0 0 .753 0l2.143-2.133a.535.535 0 0 0 0-.756zm-2.519 1.759-1.387-1.381 1.387-1.381 1.387 1.381-1.387 1.381zm6.081-15.232-.258 1.036c.071.018 1.738.452 1.738 2.149h1.067c0-2.017-1.666-2.965-2.547-3.185zm2.547 4.251h-1.067v1.067h1.067V9.322z" style="fill:var(--color1, #212121)"/>
        </symbol>
        <symbol id="icon-clock" viewBox="0 0 32 32">
            <path fill="#212121" d="M31.297 15.301C31.295 6.849 24.442-.002 15.989 0S.686 6.855.688 15.308a15.304 15.304 0 0 0 10.649 14.576.63.63 0 0 0 .187.029.677.677 0 0 0 .346-.095l-.003.002a.64.64 0 0 0 .282-.352l.001-.005 3.865-12.25a1.912 1.912 0 1 0-.851-3.63l.011-.005-5.106-5.107a.637.637 0 0 0-.902.902l5.103 5.109a1.876 1.876 0 0 0 .536 2.309l-3.683 11.673C3.845 25.783.119 17.71 2.8 10.432S13.554-.572 20.832 2.109c7.278 2.681 11.004 10.754 8.323 18.032-1.345 3.581-4.003 6.406-7.374 7.938l-.088.036-.398-1.874a.638.638 0 0 0-1.049-.343l.001-.001-3.837 3.426a.637.637 0 0 0 .231 1.084l4.899 1.563a.638.638 0 0 0 .818-.743l.001.004-.391-1.839a15.255 15.255 0 0 0 9.329-14.089zm-15.305-.637a.638.638 0 1 1 0 1.277.638.638 0 0 1 0-1.277zm2.101 14.864 2.184-1.948.603 2.84-2.787-.892z" style="fill:var(--color1, #212121)"/>
            <path fill="#2196f3" d="M15.354 3.185V4.46a.638.638 0 1 0 1.276 0V3.185a.638.638 0 0 0-1.276 0zM3.876 14.664a.638.638 0 0 0 0 1.276h1.275a.638.638 0 1 0 0-1.276H3.876zm24.232 1.275a.638.638 0 1 0 0-1.276h-1.275a.638.638 0 0 0 0 1.276h1.275z" style="fill:var(--color2, #2196f3)"/>
        </symbol>
        <symbol id="icon-diagram" viewBox="0 0 32 32">
            <path fill="#2196f3" d="M14.926 14.965h1.066v4.798h-1.066v-4.797zm4.264 2.132h1.066v2.665H19.19v-2.665zm-8.529 1.599h1.066v1.066h-1.066v-1.066zm-3.198-.533h1.066v1.599H7.463v-1.599z" style="fill:var(--color2, #2196f3)"/>
            <path fill="#212121" d="M1.599 28.291h25.587a1.6 1.6 0 0 0 1.599-1.599V24.56a1.6 1.6 0 0 0-1.599-1.599h-.533V9.668L29.681 6.8a1.608 1.608 0 1 0-.746-.763L26.654 8.2V6.97a1.6 1.6 0 0 0-1.599-1.599H3.733A1.6 1.6 0 0 0 2.134 6.97v15.992h-.533a1.6 1.6 0 0 0-1.599 1.599v2.132a1.6 1.6 0 0 0 1.599 1.599zM30.384 4.837a.533.533 0 1 1 0 1.067.533.533 0 0 1 0-1.067zM3.198 6.969c0-.294.239-.533.533-.533h21.322c.294 0 .533.239.533.533v2.239l-1.066 1.013V8.035a.533.533 0 0 0-.533-.533H4.797a.533.533 0 0 0-.533.533v13.326c0 .294.239.533.533.533h19.19a.533.533 0 0 0 .533-.533v-9.674l1.066-1.01v12.284H3.198V6.969zm4.798 6.93a1.598 1.598 0 1 0 1.107 2.749l1.853.93a.534.534 0 0 0 .636-.122v-.001l3.939-4.431 3.872 2.901a.532.532 0 0 0 .687-.04l3.365-3.188v8.131H5.331V8.568h18.124v2.66L19.684 14.8l-3.904-2.927a.533.533 0 0 0-.718.072l-3.993 4.493-1.493-.746c.01-.056.017-.123.02-.19v-.003A1.6 1.6 0 0 0 7.997 13.9zm.533 1.599a.533.533 0 1 1-1.067 0 .533.533 0 0 1 1.067 0zm3.198 8.529h5.331v.533a.533.533 0 0 1-.533.533h-4.264a.533.533 0 0 1-.533-.533v-.533zm-10.661.533c0-.294.239-.533.533-.533h9.062v.533a1.6 1.6 0 0 0 1.599 1.599h4.264a1.6 1.6 0 0 0 1.599-1.599v-.533h9.062c.294 0 .533.239.533.533v2.132a.533.533 0 0 1-.533.533H1.598a.533.533 0 0 1-.533-.533V24.56z" style="fill:var(--color1, #212121)"/>
        </symbol>
        <symbol id="icon-envelope" viewBox="0 0 43 32">
            <path fill="#2196f3" d="M38.667 0H4C1.795 0 0 1.794 0 4v24c0 2.206 1.794 4 4 4h34.667c2.206 0 4-1.794 4-4V4c0-2.205-1.794-4-4-4zm0 2.667c.184 0 .36.038.52.107l-.009-.003-17.844 15.466L3.489 2.771c.151-.065.327-.103.511-.103h34.667zm0 26.666H4A1.333 1.333 0 0 1 2.667 28V5.587L20.46 21.008c.232.202.538.325.872.325h.003c.334 0 .64-.123.874-.327l-.002.001L40 5.586v22.413c0 .736-.598 1.333-1.333 1.333z" style="fill:var(--color2,)"/>
        </symbol>
        <symbol id="icon-facebook" viewBox="0 0 32 32">
            <path fill="#afb1b8" d="M21.329 5.313h2.921V.225C23.746.156 22.013 0 19.994 0c-4.212 0-7.097 2.649-7.097 7.519V12H8.249v5.688h4.648V32h5.699V17.689h4.46l.708-5.688h-5.169V8.082c.001-1.644.444-2.769 2.735-2.769z" style="fill:var(--color3, )"/>
        </symbol>
        <symbol id="icon-instagram" viewBox="0 0 32 32">
            <path fill="#afb1b8" d="M31.969 9.408c-.075-1.7-.35-2.869-.744-3.882a7.806 7.806 0 0 0-1.851-2.838A7.89 7.89 0 0 0 26.596.862l-.054-.018C25.523.45 24.36.175 22.66.1 20.947.019 20.403 0 16.059 0s-4.888.019-6.595.094c-1.7.075-2.869.35-3.882.744a7.803 7.803 0 0 0-2.838 1.85A7.89 7.89 0 0 0 .918 5.466L.9 5.52C.506 6.539.231 7.701.156 9.402c-.081 1.713-.1 2.257-.1 6.602s.019 4.888.094 6.595c.075 1.7.35 2.869.744 3.882a7.941 7.941 0 0 0 1.849 2.837l.001.001a7.89 7.89 0 0 0 2.778 1.826l.054.018c1.019.394 2.182.669 3.882.744 1.706.075 2.25.094 6.595.094s4.888-.019 6.595-.094c1.7-.075 2.869-.35 3.882-.744a8.233 8.233 0 0 0 4.663-4.627l.019-.055c.394-1.019.669-2.182.744-3.882.075-1.707.094-2.251.094-6.595s-.006-4.888-.081-6.595zm-2.882 13.065c-.069 1.563-.331 2.407-.55 2.969a5.342 5.342 0 0 1-3.002 3.026l-.036.013c-.563.219-1.413.481-2.969.55-1.688.075-2.194.094-6.464.094s-4.782-.019-6.464-.094c-1.563-.069-2.407-.331-2.969-.55a4.926 4.926 0 0 1-1.838-1.194 4.98 4.98 0 0 1-1.183-1.804l-.011-.034c-.219-.563-.481-1.413-.55-2.969-.075-1.688-.094-2.194-.094-6.464s.019-4.782.094-6.464c.069-1.563.331-2.407.55-2.969a4.868 4.868 0 0 1 1.2-1.838 4.98 4.98 0 0 1 1.804-1.183l.034-.011c.563-.219 1.413-.481 2.969-.55 1.688-.075 2.194-.094 6.464-.094 4.276 0 4.782.019 6.464.094 1.563.069 2.407.331 2.969.55a4.914 4.914 0 0 1 1.838 1.194 4.974 4.974 0 0 1 1.194 1.838c.219.563.481 1.413.55 2.969.075 1.688.094 2.194.094 6.464s-.019 4.77-.094 6.458z" style="fill:var(--color3,)"/>
            <path fill="#afb1b8" d="M16.059 7.783c-4.538 0-8.22 3.682-8.22 8.22s3.682 8.22 8.22 8.22c4.539 0 8.22-3.682 8.22-8.22s-3.682-8.22-8.22-8.22zm0 13.552a5.333 5.333 0 0 1 0-10.664 5.333 5.333 0 0 1 0 10.664zM26.524 7.458a1.919 1.919 0 1 1-3.838 0 1.919 1.919 0 0 1 3.838 0z" style="fill:var(--color3,)"/>
        </symbol>
        <symbol id="icon-linkedin" viewBox="0 0 32 32">
            <path fill="#afb1b8" d="M31.992 32v-.001H32V20.263c0-5.741-1.236-10.164-7.948-10.164-3.227 0-5.392 1.771-6.276 3.449h-.093v-2.913h-6.364v21.364h6.627V21.42c0-2.785.528-5.479 3.977-5.479 3.399 0 3.449 3.179 3.449 5.657v10.401h6.62zM.528 10.636h6.635V32H.528V10.636zM3.843 0C1.722 0 0 1.721 0 3.843s1.721 3.879 3.843 3.879c2.121 0 3.843-1.757 3.843-3.879A3.846 3.846 0 0 0 3.843 0z" style="fill:var(--color3, )"/>
        </symbol>
        <symbol id="icon-client-1" viewBox="0 0 57 32">
            <path fill="#afb1b8" d="m20.267 3.733 3.738 3.538-6.938-.004v17.166H35.2v-6.564l3.733 3.534V3.732H20.266zm14.769 13.722L24.439 7.423h10.597v10.032zm-3.29 4.468h-11.81V10.378h.835v10.764h10.975v.782zm-9.021 4.797-.436.898-.436-.898h-.366l.637 1.198v.698h.331v-.698l.635-1.198h-.365zm.548 1.895.154-.441h.734l.155.441h.344l-.717-1.896h-.296l-.716 1.896h.342zm.521-1.493.275.786h-.549l.275-.786zm1.737.741a.426.426 0 0 0-.072.238v.003c0 .16.056.29.168.389s.263.148.451.148.349-.051.484-.152l.107.126h.367l-.279-.329a.95.95 0 0 0 .164-.574h-.275a.758.758 0 0 1-.079.348l-.366-.432.129-.094a.72.72 0 0 0 .197-.198.412.412 0 0 0 .06-.216v-.003c0-.12-.044-.22-.133-.301s-.201-.122-.339-.122c-.153 0-.274.043-.365.13s-.135.203-.135.352c0 .061.014.124.043.189s.081.144.155.237a1.12 1.12 0 0 0-.283.262zm.855.419a.485.485 0 0 1-.299.107c-.095 0-.17-.027-.227-.082s-.085-.126-.085-.214c0-.102.052-.192.156-.271l.04-.029.414.488zm-.34-.84c-.089-.11-.134-.202-.134-.275 0-.063.018-.116.055-.158s.085-.063.147-.063c.057 0 .105.018.142.053s.056.077.056.126a.235.235 0 0 1-.081.184l-.04.033-.145.099zm3.086 1.03a.689.689 0 0 0 .224-.474h-.328c-.017.135-.059.232-.124.29s-.162.087-.292.087c-.142 0-.249-.054-.323-.161s-.109-.264-.109-.469v-.168c.002-.202.041-.355.117-.46s.188-.158.331-.158c.123 0 .217.03.28.091s.104.158.12.294h.328c-.021-.207-.095-.368-.223-.482s-.296-.171-.505-.171a.718.718 0 0 0-.683.426 1.116 1.116 0 0 0-.095.473v.177c.003.174.035.328.098.46s.151.234.266.306a.748.748 0 0 0 .4.107c.216 0 .389-.056.52-.169zm1.936-.266c.064-.141.096-.304.096-.49v-.105c-.001-.185-.034-.347-.099-.486a.726.726 0 0 0-.687-.432.757.757 0 0 0-.411.113c-.119.075-.211.183-.277.324s-.098.305-.098.49v.107c.001.181.034.342.099.48s.159.246.279.322a.764.764 0 0 0 .411.112c.155 0 .293-.037.411-.112s.212-.183.276-.323zm-.352-1.071c.08.112.12.273.12.483v.099c0 .214-.04.376-.119.487s-.19.167-.336.167c-.144 0-.257-.057-.339-.171s-.121-.275-.121-.483v-.109c.002-.204.043-.362.122-.473s.192-.168.335-.168c.146 0 .258.056.337.168z" style="fill:var(--color3)"/>
        </symbol>
        <symbol id="icon-client-2" viewBox="0 0 57 32">
            <path fill="#afb1b8" d="M26.727 3.165h-.073a7.542 7.542 0 0 0-.336-.012h-.243c-.212 0-.428.005-.642.016l-.024-.001-.025.001h.001c-2.059.12-3.971.635-5.699 1.47l.09-.039-.231.111V16.52l.54-.183a20.64 20.64 0 0 1 1.5-.445 17.864 17.864 0 0 1 4.305-.574h.013v1.551a11.77 11.77 0 0 0-.6.018l.032-.001h-.045c-1.212.068-2.348.25-3.442.537l.12-.027c-1.503.382-2.82.91-4.044 1.586l.087-.044V3.793a15.524 15.524 0 0 1 4.042-1.665l.11-.024a15.5 15.5 0 0 1 3.909-.504h.231c.273.007.538.019.788.038.719.052 1.384.162 2.028.328l-.078-.017v1.527a11.39 11.39 0 0 0-1.85-.282l-.039-.002-.039-.003c-.132-.011-.263-.022-.386-.022zm2.688 1.561c.339.026.689.038 1.044.038a16.84 16.84 0 0 0 4.231-.554l-.117.026a16.884 16.884 0 0 0 4.043-1.588l-.087.044v14.875a15.566 15.566 0 0 1-4.043 1.665l-.11.024c-1.173.314-2.52.497-3.909.503h-.1c-1.02 0-2.01-.128-2.955-.368l.083.018V4.438c.229.053.465.102.706.142.394.066.81.115 1.214.145zm7.57.115-.54.182c-.326.12-.827.273-1.334.411l-.166.038c-1.344.36-2.888.569-4.48.575h-.004c-.352 0-.676-.01-.989-.03l-.43-.028v12.148l.37.033c.343.03.696.045 1.052.045a14.371 14.371 0 0 0 3.631-.48l-.1.023a14.726 14.726 0 0 0 2.847-1.03l-.088.039.231-.111V4.843zM19.06 24.113a.806.806 0 0 0-.269-.184l-.005-.002a.77.77 0 0 0-.297-.058l-.03.001h.001-.012a.897.897 0 0 0-.341.067l.006-.002a.786.786 0 0 0-.442.444l-.002.005a.87.87 0 0 0-.062.325v.011-.001 2.023a.94.94 0 0 0 .08.415c.05.107.118.197.201.27l.001.001a.718.718 0 0 0 .278.144c.09.026.195.042.302.042h.007a.747.747 0 0 0 .324-.073l-.005.002a.869.869 0 0 0 .27-.187.88.88 0 0 0 .175-.265l.002-.006a.804.804 0 0 0 .065-.319v-.23h-.529v.192a.46.46 0 0 1-.032.171l.001-.003a.315.315 0 0 1-.077.114.34.34 0 0 1-.108.058l-.002.001a.384.384 0 0 1-.11.019.263.263 0 0 1-.14-.021l.002.001a.276.276 0 0 1-.109-.087l-.001-.001a.477.477 0 0 1-.071-.25v-.022.001-1.907c0-.103.024-.2.067-.286l-.002.004a.28.28 0 0 1 .11-.098l.002-.001a.269.269 0 0 1 .148-.024h-.001.01c.092 0 .174.045.226.113l.001.001a.425.425 0 0 1 .088.26v.011-.001.175h.524v-.214a.958.958 0 0 0-.067-.352l.002.006a.822.822 0 0 0-.177-.285zm3.142-.023a.933.933 0 0 0-.601-.222.907.907 0 0 0-.322.059l.006-.002a.842.842 0 0 0-.28.166l.001-.001a.846.846 0 0 0-.203.278l-.002.005a.926.926 0 0 0-.077.374v.019-.001 1.941a.932.932 0 0 0 .077.397.791.791 0 0 0 .205.271.837.837 0 0 0 .279.171.907.907 0 0 0 .638-.002l-.006.002a.9.9 0 0 0 .287-.172l-.001.001a.849.849 0 0 0 .198-.266l.002-.005a.92.92 0 0 0 .077-.372v-.026.001-1.959a.947.947 0 0 0-.079-.38l.002.006a.876.876 0 0 0-.199-.283zm-.247 2.616.001.03a.352.352 0 0 1-.106.251.387.387 0 0 1-.499 0h.001a.346.346 0 0 1-.107-.251l.001-.031v.001-1.941l-.001-.03c0-.098.041-.187.106-.251a.387.387 0 0 1 .499 0h-.001a.346.346 0 0 1 .107.251l-.001.032v-.001 1.941zm4.374.867v-3.674h-.509l-.668 1.945h-.009l-.673-1.945h-.503v3.674h.525v-2.235h.009l.514 1.58h.262l.518-1.58h.009v2.235h.525zm2.982-3.416a.729.729 0 0 0-.292-.199l-.005-.002a1.151 1.151 0 0 0-.36-.057h-.8v3.674h.523v-1.435h.27a.964.964 0 0 0 .472-.1.773.773 0 0 0 .285-.277l.002-.003c.058-.092.1-.2.119-.315l.001-.005c.018-.116.029-.249.029-.385v-.034.002l.001-.061c0-.165-.019-.325-.055-.478l.003.014a.789.789 0 0 0-.193-.338zm-.27 1.12a.45.45 0 0 1-.05.194l.001-.003a.3.3 0 0 1-.133.128l-.002.001a.52.52 0 0 1-.219.047l-.029-.001h.001-.239v-1.249h.27l.025-.001c.077 0 .149.017.215.048l-.003-.001a.304.304 0 0 1 .122.134l.001.002a.537.537 0 0 1 .046.205v.244c0 .085.005.174 0 .252h-.005zm2.75-1.378h-.429l-.809 3.674h.523l.154-.789h.714l.154.789h.524l-.83-3.674zm-.483 2.384.258-1.332h.009l.256 1.332h-.524zm3.865-.171h-.009l-.791-2.213h-.503v3.674h.523v-2.209h.011l.8 2.209h.492v-3.674h-.523v2.213zm3.199-2.213-.421 1.461h-.011l-.421-1.461h-.554l.719 2.121v1.553h.524V26.02l.719-2.121h-.554zM17.6 28.61h.252v.708h.171v-.708h.251v-.145h-.675v.145zm2.121-.145-.331.853h.182l.07-.194h.34l.073.194h.186l-.339-.853h-.182zm-.027.516.116-.316.116.316h-.232zm2.124.023h.197v.11a.329.329 0 0 1-.202.072h-.012a.218.218 0 0 1-.169-.081.356.356 0 0 1-.064-.204l.001-.02v.001c0-.19.082-.285.246-.285l.018-.001c.039 0 .075.012.104.033h-.001c.035.025.06.061.071.102v.001l.169-.033c-.036-.167-.156-.251-.362-.251h-.011a.43.43 0 0 0-.287.11.415.415 0 0 0-.123.33v-.001.02c0 .115.041.22.11.301l-.001-.001a.41.41 0 0 0 .296.126l.029-.001h-.001.014a.515.515 0 0 0 .348-.136v-.336h-.37v.144zm2.141-.539h-.173v.853h.598v-.145h-.425v-.708zm1.81 0h-.173v.853h.173v-.853zm1.77.57-.349-.57h-.167v.853h.161v-.557l.343.557h.171v-.853h-.158v.57zm1.601-.092h.425v-.145h-.425v-.187h.457v-.145h-.63v.853h.648v-.145h-.475v-.231zm3.88-.141h-.336v-.336h-.171v.853h.171v-.373h.336v.373h.171v-.853h-.171v.336zm1.609.141h.426v-.145h-.426v-.187h.459v-.145h-.63v.853h.646v-.145h-.475v-.231zm2.183 0c.148-.023.224-.102.224-.237l.001-.024a.203.203 0 0 0-.084-.165h-.001a.48.48 0 0 0-.216-.051l-.035.001h.002-.362v.853h.171v-.357h.048a.23.23 0 0 1 .094.02l-.001-.001a.178.178 0 0 1 .06.062v.001l.186.271h.205L37 29.149a.598.598 0 0 0-.187-.203l-.002-.001zm-.172-.118h-.127v-.214h.135l.036-.001c.049 0 .097.008.141.023l-.003-.001a.113.113 0 0 1-.007.174.466.466 0 0 1-.143.021l-.033-.001h.001zm1.818.118h.425v-.145h-.425v-.187h.459v-.145h-.631v.853h.648v-.145h-.475v-.231z" style="fill:var(--color3,)"/>
        </symbol>
        <symbol id="icon-client-3" viewBox="0 0 57 32">
            <path fill="#afb1b8" d="M19.417 26.187a.07.07 0 0 1 .025.005.057.057 0 0 1 .021.013l.116.111a.955.955 0 0 1-.327.211 1.254 1.254 0 0 1-.434.076h-.031.002-.024c-.148 0-.29-.026-.421-.074l.009.003a.942.942 0 0 1-.329-.2c-.094-.089-.166-.194-.212-.308s-.074-.245-.074-.384v-.013.001-.013c0-.139.029-.271.082-.39l-.002.006a.91.91 0 0 1 .225-.308 1.06 1.06 0 0 1 .349-.201 1.34 1.34 0 0 1 .435-.071h.016-.001.027c.14 0 .274.024.399.067l-.009-.003c.115.043.221.104.313.178l-.097.119a.08.08 0 0 1-.024.021.064.064 0 0 1-.034.009h-.006a.103.103 0 0 1-.043-.013l-.052-.032-.073-.04a.676.676 0 0 0-.092-.037l-.006-.002a.93.93 0 0 0-.126-.031l-.006-.001a.987.987 0 0 0-.16-.013h-.014.001-.012a.928.928 0 0 0-.318.055l.007-.002a.683.683 0 0 0-.417.387.783.783 0 0 0-.06.303v.011-.001.012c0 .11.022.216.062.312l-.002-.005a.68.68 0 0 0 .402.383.867.867 0 0 0 .3.05h.017c.056 0 .112-.004.167-.011l-.006.001a.712.712 0 0 0 .273-.087l-.003.002a.789.789 0 0 0 .116-.08l-.002.001a.088.088 0 0 1 .055-.02zm3.359-.558v.012a.966.966 0 0 1-.081.388l.002-.006c-.047.114-.122.218-.219.305s-.214.155-.344.2a1.409 1.409 0 0 1-.894-.003l.01.003a1.027 1.027 0 0 1-.342-.201.904.904 0 0 1-.221-.308 1.022 1.022 0 0 1 0-.787.94.94 0 0 1 .221-.31c.097-.084.214-.15.342-.193a1.383 1.383 0 0 1 .894.003l-.01-.003c.129.046.246.114.343.201a.914.914 0 0 1 .298.699zm-.306 0v-.017c0-.108-.02-.21-.057-.305l.002.006a.653.653 0 0 0-.402-.385 1.027 1.027 0 0 0-.65.002l.007-.002a.683.683 0 0 0-.246.149.63.63 0 0 0-.157.236.915.915 0 0 0 .002.638l-.002-.006a.643.643 0 0 0 .403.384 1.029 1.029 0 0 0 .65-.003l-.007.002a.698.698 0 0 0 .246-.148.662.662 0 0 0 .156-.236.815.815 0 0 0 .055-.298v-.019.001zm2.597.331.03.071.033-.071a.937.937 0 0 1 .039-.072l-.002.003.743-1.174c.015-.02.028-.033.042-.037s.033-.007.051-.007h.231v1.909h-.26v-1.463l-.001-.033.001-.034v.002l-.747 1.19a.111.111 0 0 1-.043.043h-.001a.13.13 0 0 1-.063.016H25.075a.134.134 0 0 1-.063-.016h.001a.105.105 0 0 1-.043-.043v-.001l-.769-1.198v1.532h-.252v-1.905h.23c.018 0 .035.002.052.007h-.001a.08.08 0 0 1 .041.036l.759 1.175c.014.02.026.042.037.066l.001.003zm2.797-.095v.715h-.291v-1.906h.673c.12 0 .237.015.348.044l-.01-.002a.724.724 0 0 1 .256.119.492.492 0 0 1 .145.187.576.576 0 0 1 .049.244v.007c0 .086-.02.167-.055.24l.001-.003a.54.54 0 0 1-.157.191.744.744 0 0 1-.252.125l-.005.001a1.208 1.208 0 0 1-.327.044h-.025.001l-.352-.005zm0-.205h.362a.842.842 0 0 0 .221-.03l-.006.001a.479.479 0 0 0 .164-.083l-.001.001a.338.338 0 0 0 .098-.124l.001-.002a.361.361 0 0 0 .035-.156v-.005l.001-.02a.313.313 0 0 0-.031-.137l.001.002a.383.383 0 0 0-.101-.13l-.001-.001a.624.624 0 0 0-.391-.102h-.352v.786zm3.908.923h-.234a.111.111 0 0 1-.06-.018.116.116 0 0 1-.038-.044v-.001l-.198-.461h-.993l-.205.461a.108.108 0 0 1-.036.043.108.108 0 0 1-.062.019h-.234l.872-1.909h.302l.884 1.909zm-1.439-.709h.82l-.346-.777a1.205 1.205 0 0 1-.063-.171l-.002-.009-.034.1a.735.735 0 0 1-.034.086l.002-.006-.343.776zm2.696-1.192a.12.12 0 0 1 .043.034l1.272 1.439v-1.482h.26v1.909h-.149a.139.139 0 0 1-.057-.012h.001a.148.148 0 0 1-.046-.035l-1.271-1.438.001.033-.001.034v-.002 1.419h-.26v-1.909h.158c.017 0 .034.003.05.009h-.001zm3.719 1.141v.758h-.291v-.758l-.804-1.15h.266a.1.1 0 0 1 .057.017.173.173 0 0 1 .039.042v.001l.503.742a.717.717 0 0 1 .088.169l.038-.082a.577.577 0 0 1 .051-.089l-.002.002.496-.747a.202.202 0 0 1 .037-.04.096.096 0 0 1 .058-.019h.268l-.806 1.155zM24.923 21.47c.127.014.255.025.384.035 1.962-.763 3.622-2.011 4.772-3.588s1.74-3.415 1.695-5.282l-2.162-1.879c.44 1.988.234 4.043-.594 5.935s-2.245 3.547-4.094 4.779z" style="fill:var(--color3,)"/>
            <path fill="#afb1b8" d="m24.151 21.383.058.01c1.975-1.228 3.482-2.942 4.323-4.921s.981-4.133.4-6.181l-3.08-2.676c1.246 2.2 1.747 4.661 1.446 7.098s-1.393 4.75-3.147 6.67zm10.445-6.542c-.523 2.052-1.794 3.902-3.624 5.276-.534.404-1.111.763-1.722 1.074 1.49-.38 2.859-1.053 4.003-1.966s2.03-2.042 2.592-3.3l-1.249-1.084z" style="fill:var(--color3, )"/>
            <path fill="#afb1b8" d="m34.106 14.539-1.778-1.545c-.034 1.762-.61 3.483-1.669 4.986s-2.562 2.731-4.352 3.559h.009c.421 0 .836-.023 1.245-.066l-.051.004c1.673-.593 3.151-1.537 4.303-2.748s1.94-2.65 2.295-4.189zm-9.697-8.053L22.287 4.64c-1.897.637-3.528 1.756-4.68 3.212s-1.772 3.179-1.778 4.946c.007 1.952.763 3.846 2.149 5.383s3.322 2.628 5.501 3.101c1.946-2.06 3.085-4.605 3.252-7.266s-.647-5.299-2.323-7.53zm14.599 7.769c-.008-2.316-1.07-4.535-2.955-6.173s-4.439-2.561-7.105-2.567a11.3 11.3 0 0 0-3.602.582l12.99 11.286a7.647 7.647 0 0 0 .672-3.128z" style="fill:var(--color3,)"/>
        </symbol>
        <symbol id="icon-client-4" viewBox="0 0 57 32">
            <path fill="#2196f3" d="M12.878 11.255h-.002c-1.279 0-2.316.921-2.316 2.058v.001c0 1.137 1.037 2.058 2.316 2.058h.002c1.279 0 2.316-.921 2.316-2.058v-.001c0-1.137-1.037-2.058-2.316-2.058zm17.093-.658c-.004-1.579-.711-3.092-1.967-4.208s-2.958-1.745-4.735-1.749c-1.777.003-3.48.631-4.737 1.748s-1.964 2.63-1.968 4.209v8.706s13.405-1.327 13.406-8.704v-.001zM5.867 22.16c.003 1.098.496 2.151 1.369 2.928s2.058 1.215 3.294 1.218c1.236-.003 2.42-.441 3.294-1.218s1.366-1.829 1.37-2.927v-6.057s-9.327.924-9.327 6.056zm4.663 1.085c-.242 0-.478-.064-.678-.183s-.357-.289-.45-.487c-.092-.198-.117-.417-.069-.627s.163-.404.334-.556c.171-.152.388-.255.625-.297s.482-.02.706.062c.223.082.414.221.548.4s.206.388.206.603v.002c0 .15-.034.293-.094.42l.003-.006c-.061.132-.151.252-.264.353s-.248.182-.397.236a1.32 1.32 0 0 1-.467.083h-.002v-.004zm9.426-.598h-.9v.93h-.469v-2.275h1.481v.38h-1.012v.588h.9v.378zm2.253-.156c0 .224-.04.42-.119.589a.893.893 0 0 1-.847.528c-.189 0-.357-.045-.505-.136s-.262-.22-.344-.387a1.344 1.344 0 0 1-.123-.581v-.112c0-.224.04-.421.12-.591a.895.895 0 0 1 .848-.529c.189 0 .358.046.505.137a.888.888 0 0 1 .342.392c.081.17.122.366.122.589v.102zm-.475-.103c0-.238-.043-.42-.128-.544s-.207-.186-.366-.186a.416.416 0 0 0-.364.184c-.085.122-.129.301-.13.538v.111c0 .232.043.412.128.541s.208.192.369.192a.415.415 0 0 0 .363-.184c.084-.124.127-.304.128-.541v-.111zm1.996.592a.237.237 0 0 0-.094-.203 1.203 1.203 0 0 0-.337-.15 2.418 2.418 0 0 1-.386-.156c-.258-.14-.387-.328-.387-.564 0-.123.034-.232.103-.328a.688.688 0 0 1 .298-.227c.13-.054.276-.081.438-.081.163 0 .307.03.434.089a.662.662 0 0 1 .401.614h-.469c0-.104-.033-.185-.098-.242s-.158-.087-.277-.087a.426.426 0 0 0-.267.073.225.225 0 0 0-.095.191c0 .074.037.136.111.186.075.05.185.097.33.141.267.08.461.18.583.298s.183.267.183.444a.55.55 0 0 1-.223.464c-.149.111-.349.167-.602.167-.175 0-.334-.032-.478-.095-.144-.065-.254-.153-.33-.264s-.113-.241-.113-.388h.47c0 .251.15.377.45.377a.442.442 0 0 0 .261-.067.222.222 0 0 0 .094-.191zm2.501-1.298h-.697v1.895h-.469v-1.895h-.687v-.38h1.853v.38zm1.638.909h-.9v.609h1.056v.377H26.5v-2.275h1.522v.38h-1.053v.542h.9v.367zm1.273.153h-.373v.833H28.3v-2.275h.845c.269 0 .476.06.622.18s.219.289.219.508a.697.697 0 0 1-.102.389.689.689 0 0 1-.305.247l.492.93v.022h-.503l-.427-.833zm-.373-.379h.378c.118 0 .209-.03.273-.089a.321.321 0 0 0 .097-.248.343.343 0 0 0-.092-.253c-.06-.061-.154-.092-.28-.092h-.377v.683zm2.84.41v.802h-.469v-2.275h.887c.171 0 .321.031.45.094a.703.703 0 0 1 .405.659.655.655 0 0 1-.23.528c-.152.128-.363.192-.633.192h-.411zm0-.379h.419c.124 0 .218-.029.283-.088.066-.058.098-.142.098-.25 0-.111-.033-.202-.098-.27s-.156-.104-.272-.106h-.43v.714zm2.966.195h-.9v.609h1.056v.377h-1.525v-2.275h1.522v.38h-1.053v.542h.9v.367zm2.175-.909h-.697v1.895h-.469v-1.895h-.688v-.38h1.853v.38zm1.637.909h-.9v.609h1.056v.377h-1.525v-2.275h1.522v.38h-1.053v.542h.9v.367zm1.274.153h-.373v.833h-.469v-2.275h.845c.269 0 .476.06.622.18s.219.289.219.508a.697.697 0 0 1-.102.389.689.689 0 0 1-.305.247l.492.93v.022h-.503l-.427-.833zm-.374-.379h.378c.118 0 .209-.03.273-.089a.321.321 0 0 0 .097-.248.343.343 0 0 0-.092-.253c-.06-.061-.154-.092-.28-.092h-.377v.683zm2.755.615a.237.237 0 0 0-.094-.203 1.203 1.203 0 0 0-.337-.15 2.418 2.418 0 0 1-.386-.156c-.258-.14-.388-.328-.388-.564 0-.123.034-.232.103-.328a.688.688 0 0 1 .298-.227c.13-.054.276-.081.438-.081.163 0 .307.03.434.089a.675.675 0 0 1 .295.248.646.646 0 0 1 .106.366h-.469c0-.104-.033-.185-.098-.242s-.158-.087-.277-.087a.426.426 0 0 0-.267.073.225.225 0 0 0-.095.191c0 .074.037.136.111.186.075.05.185.097.33.141.267.08.461.18.583.298s.183.267.183.444a.548.548 0 0 1-.223.464c-.149.111-.349.167-.602.167-.175 0-.334-.032-.478-.095a.773.773 0 0 1-.33-.264.678.678 0 0 1-.112-.388h.47c0 .251.15.377.45.377a.442.442 0 0 0 .261-.067.222.222 0 0 0 .094-.191z" style="fill:var(--color2)"/>
        </symbol>
        <symbol id="icon-client-5" viewBox="0 0 57 32">
            <path fill="#afb1b8" d="M14.27 23.859c.13.147.199.332.196.521l.001.04a.752.752 0 0 1-.073.325l.002-.005a.817.817 0 0 1-.233.297c-.252.175-.565.26-.881.24h-1.549v-3.302h1.517c.299-.018.596.059.84.219.098.075.176.17.227.277s.074.224.068.341a.725.725 0 0 1-.176.505.839.839 0 0 1-.462.258.897.897 0 0 1 .523.282zm-1.816-.499h.648a.653.653 0 0 0 .412-.11.399.399 0 0 0 .11-.144l.001-.003a.353.353 0 0 0 .03-.144l-.002-.033v.001l.001-.028a.376.376 0 0 0-.031-.15l.001.002a.41.41 0 0 0-.108-.147h-.001a.665.665 0 0 0-.425-.111h-.638v.866zm1.124 1.267a.407.407 0 0 0 .118-.149l.001-.003a.37.37 0 0 0 .035-.158l-.001-.027v.001l.001-.023a.38.38 0 0 0-.037-.165l.001.002a.421.421 0 0 0-.121-.152l-.001-.001a.714.714 0 0 0-.44-.119h-.68v.908h.689a.732.732 0 0 0 .435-.114zm3.793.651-.844-1.291h-.317v1.291h-.726v-3.302h1.374c.346-.022.689.078.957.281.192.179.308.415.327.666s-.061.499-.224.7c-.17.178-.401.296-.655.336l.898 1.32h-.789zm-1.161-1.74h.594c.412 0 .618-.167.618-.5l.001-.028a.441.441 0 0 0-.035-.175l.001.003a.494.494 0 0 0-.118-.171.687.687 0 0 0-.467-.134h-.601l.007 1.005zm5.129 1.076h-1.446l-.255.665h-.761l1.328-3.265h.823l1.323 3.265h-.761l-.25-.665zm-.194-.5-.529-1.394-.529 1.394h1.057zm5.16 1.164h-.721l-1.616-2.245v2.245h-.719v-3.302h.719l1.616 2.258v-2.258h.721v3.302zm4.112-.79a1.501 1.501 0 0 1-.652.582 2.282 2.282 0 0 1-1.013.208h-1.283v-3.302h1.283c.351-.008.698.061 1.013.203.276.127.503.328.652.576a1.78 1.78 0 0 1 0 1.732zm-.824-.079c.206-.219.319-.499.319-.788s-.113-.569-.319-.788a1.326 1.326 0 0 0-.902-.281h-.5v2.137h.5c.329.019.654-.082.902-.281zm-7.803-20.8s9.301 3.215 9.103 7.867v7.869s-9.294-3.217-9.1-7.869l-.004-7.867zm17.389 13.894a13.494 13.494 0 0 1 5.909-1.994v-2.463c-2.444.862-4.517 2.426-5.909 4.457z" style="fill:var(--color3,)"/>
            <path fill="#afb1b8" d="M38.124 18.245c1.438-2.651 3.93-4.696 6.964-5.715V5.432s-13.245 4.58-12.965 11.205V27.84s.59-.205 1.519-.589c0-.358 0-.719.042-1.082.274-3.076 1.871-5.926 4.44-7.924z" style="fill:var(--color3,)"/>
            <path fill="#afb1b8" d="M36.864 22.407a10.73 10.73 0 0 1 .485-2.37l-.021.076c-1.599 1.725-2.568 3.866-2.77 6.122-.019.213-.03.426-.035.645a40.466 40.466 0 0 0 2.548-1.229 10.392 10.392 0 0 1-.249-2.289c0-.336.016-.669.046-.998l-.003.042zm.527.04a10.254 10.254 0 0 0 .175 3.004l-.012-.066c3.619-1.983 7.685-5.046 7.528-8.748v-.323c-2.585.265-5.004 1.3-6.885 2.946a10.29 10.29 0 0 0-.807 3.188z" style="fill:var(--color3,)"/>
        </symbol>
        <symbol id="icon-client-6" viewBox="0 0 57 32">
            <path fill="#afb1b8" d="M28.493 14.618a1.58 1.58 0 0 1-.323-1.061v-1.538c0-.471.107-.83.321-1.075s.581-.367 1.102-.366c.489 0 .836.104 1.042.313.224.266.333.592.308.92v.361h-.875v-.366l.001-.048c0-.11-.009-.217-.028-.321l.002.011a.352.352 0 0 0-.125-.213.505.505 0 0 0-.317-.083.533.533 0 0 0-.333.088.412.412 0 0 0-.145.235 1.734 1.734 0 0 0-.035.349v.033-.002 1.866c-.014.18.025.36.112.524a.42.42 0 0 0 .175.127.48.48 0 0 0 .228.029h-.002a.478.478 0 0 0 .31-.084.375.375 0 0 0 .13-.227c.018-.101.028-.217.028-.336v-.04.002-.379h.875v.346c.025.342-.082.682-.303.967-.201.228-.544.343-1.047.343s-.884-.122-1.1-.375zm3.644.015c-.221-.239-.332-.588-.332-1.05v-1.617c0-.457.11-.802.332-1.037s.591-.351 1.109-.35c.515 0 .882.117 1.103.35.221.235.333.58.333 1.037v1.617c0 .457-.112.807-.337 1.048s-.591.361-1.1.361c-.509 0-.886-.122-1.109-.36zm1.517-.388a.906.906 0 0 0 .105-.479v-1.98a.88.88 0 0 0-.103-.469.408.408 0 0 0-.179-.129.469.469 0 0 0-.233-.027h.002a.47.47 0 0 0-.235.029l.003-.001a.417.417 0 0 0-.18.129.853.853 0 0 0-.105.469v1.99a.888.888 0 0 0 .105.479c.051.05.114.091.185.119a.612.612 0 0 0 .635-.119v-.009zm2.081-3.619h.942l.708 2.984.725-2.984h.917l.092 4.308h-.678l-.072-2.994-.699 2.994h-.544l-.725-3.005-.067 3.005h-.685l.085-4.308zm4.441 0h1.468c.846 0 1.268.408 1.268 1.223 0 .781-.445 1.171-1.335 1.17h-.5v1.915h-.906l.005-4.308zm1.254 1.841a.7.7 0 0 0 .499-.137l-.001.001a.693.693 0 0 0 .13-.486l.001-.048c0-.122-.016-.24-.047-.352l.002.009a.306.306 0 0 0-.067-.118.39.39 0 0 0-.112-.086l-.002-.001a.926.926 0 0 0-.356-.07l-.051.001h.002-.352v1.287h.352zm2.788-1.841h.973l.998 4.308h-.844l-.197-.993h-.868l-.203.993h-.857l.998-4.308zm.832 2.815-.339-1.808-.339 1.808h.678zm1.946-2.815h.634l1.214 2.457v-2.457h.752v4.308h-.603l-1.221-2.565v2.565h-.777l.002-4.308zm4.361 2.665-1.009-2.659h.85l.616 1.708.578-1.708h.832l-.997 2.659v1.642h-.87v-1.642zm-21.465 3.526v.225h-.739v1.75h-.31v-1.75H28.1v-.225h1.792zm2.317 1.976h-.245a.105.105 0 0 1-.061-.019.11.11 0 0 1-.04-.045v-.001l-.214-.469h-1.026l-.214.469a.126.126 0 0 1-.033.053.108.108 0 0 1-.062.019h-.244l.906-1.976h.315l.917 1.968zm-1.5-.734h.855l-.362-.804a1.278 1.278 0 0 1-.064-.176l-.003-.01a4.03 4.03 0 0 0-.034.105l-.033.083-.359.802zm3.062.54a1.005 1.005 0 0 0 .322-.025l-.007.001c.052-.011.096-.023.138-.038l-.008.002c.04-.014.08-.031.121-.048v-.444h-.366a.059.059 0 0 1-.023-.004h.001a.084.084 0 0 1-.023-.012c-.006-.004-.01-.01-.014-.016a.034.034 0 0 1-.004-.018v-.154h.703v.757a1.3 1.3 0 0 1-.373.159l-.009.002a1.59 1.59 0 0 1-.219.04l-.007.001a2.633 2.633 0 0 1-.261.012h-.016a1.39 1.39 0 0 1-.454-.076l.01.003a1.104 1.104 0 0 1-.362-.206c-.101-.09-.18-.196-.234-.313s-.083-.253-.083-.397v-.013.001-.012c0-.145.03-.282.084-.407l-.003.007a.907.907 0 0 1 .234-.313c.103-.089.227-.159.362-.205.14-.047.301-.074.468-.074h.019-.001.001c.088 0 .175.006.26.018l-.01-.001c.082.012.154.029.224.053l-.009-.003a1.122 1.122 0 0 1 .339.181l-.087.122a.069.069 0 0 1-.029.027.092.092 0 0 1-.041.01.111.111 0 0 1-.057-.016h.001a.892.892 0 0 1-.094-.05l.005.003a.687.687 0 0 0-.116-.051l-.006-.002a1.027 1.027 0 0 0-.16-.043l-.007-.001a1.349 1.349 0 0 0-.218-.017h-.012.001-.011c-.121 0-.237.02-.346.057l.008-.002a.704.704 0 0 0-.435.402.917.917 0 0 0 .002.665l-.002-.006a.756.756 0 0 0 .446.405c.115.034.237.047.359.039zm2.888-.032h.989v.225h-1.292v-1.976h.31l-.007 1.75zm2.019.225h-.31v-1.976h.31v1.976zm1.152-1.966a.151.151 0 0 1 .047.036l1.324 1.489-.001-.035.001-.037v.002-1.472h.27v1.984h-.166a.143.143 0 0 1-.058-.012h.001a.204.204 0 0 1-.049-.037l-1.323-1.488v1.536h-.259v-1.976h.161a.13.13 0 0 1 .052.01h-.001zm3.923-.009v.217h-1.098v.652h.89v.21h-.89v.674h1.098v.217h-1.417v-1.971h1.417zM11.286 4.616l13.757 3.372v11.818l-13.757-3.371V4.616zm-.882-1.007V17.01l15.52 3.806V7.417L10.404 3.61z" style="fill:var(--color3,)"/>
            <path fill="#afb1b8" d="M18.722 27.036 3.2 23.227V9.828l15.522 3.807v13.401z" style="fill:var(--color3,)"/>
            <path fill="#afb1b8" d="m10.661 4.465 13.578 3.33-5.774 4.987L4.885 9.45l5.776-4.985zm-.257-.856L3.2 9.828l15.522 3.807 7.202-6.219-15.52-3.807zm9.191 22.673 6.329-5.465-6.329-1.553v7.018z" style="fill:var(--color3,)"/>
        </symbol>
        <symbol id="icon-smartphone" viewBox="0 0 20 32">
            <path fill="#757575" d="M17 0H3C1.346 0 0 1.346 0 3v26c0 1.654 1.346 3 3 3h14c1.654 0 3-1.346 3-3V3c0-1.654-1.346-3-3-3zM3 2h14a1 1 0 0 1 1 1v21H2V3a1 1 0 0 1 1-1zm14 28H3a1 1 0 0 1-1-1v-3h16v3a1 1 0 0 1-1 1z" style="fill:var(--color4,)"/>
            <path fill="#757575" d="M4.707 27.478c.391.365.391.956 0 1.321s-1.024.365-1.414 0c-.391-.365-.391-.956 0-1.321s1.024-.365 1.414 0z" style="fill:var(--color4, #757575)"/>
        </symbol>
        <symbol id="icon-twitter" viewBox="0 0 32 32">
            <path fill="#afb1b8" d="M32 6.078c-1.19.522-2.458.868-3.78 1.036a6.523 6.523 0 0 0 2.886-3.626 13.11 13.11 0 0 1-4.16 1.588A6.574 6.574 0 0 0 22.154 3c-3.632 0-6.556 2.948-6.556 6.562 0 .52.044 1.02.152 1.496-5.454-.266-10.28-2.88-13.522-6.862a6.605 6.605 0 0 0-.898 3.316 6.57 6.57 0 0 0 2.914 5.452 6.479 6.479 0 0 1-2.964-.808v.072c0 3.188 2.274 5.836 5.256 6.446a6.548 6.548 0 0 1-1.72.216 5.8 5.8 0 0 1-1.242-.112c.85 2.598 3.262 4.508 6.13 4.57a13.098 13.098 0 0 1-8.12 2.798h-.015.001c-.538 0-1.054-.024-1.57-.09A18.469 18.469 0 0 0 10.064 29c12.072 0 18.672-10 18.672-18.668 0-.29-.01-.57-.024-.848A13.087 13.087 0 0 0 32 6.078z" style="fill:var(--color3, )"/>
        </symbol>
        <symbol id="icon-close" viewBox="0 0 32 32">
            <path d="M26.667 7.303l-1.97-1.97-7.808 7.808-7.808-7.808-1.97 1.97 7.808 7.808-7.808 7.808 1.97 1.97 7.808-7.808 7.808 7.808 1.97-1.97-7.808-7.808 7.808-7.808z"></path>
        </symbol>
        <symbol id="icon-send" viewBox="0 0 32 32">
            <path fill="#fff" style="fill: var(--color1, )" d="M32 0l-32 18 10.227 3.787 15.773-14.787-11.997 16.187 0.009 0.003-0.012-0.003v8.813l5.735-6.691 7.267 2.691 4.999-28z"></path>
        </symbol>
        <symbol id="icon-modal-email" viewBox="0 0 32 32">
            <path d="M26.667 5.333h-21.333c-1.467 0-2.652 1.2-2.652 2.667l-0.014 16c0 1.467 1.2 2.667 2.667 2.667h21.333c1.467 0 2.667-1.2 2.667-2.667v-16c0-1.467-1.2-2.667-2.667-2.667zM26.133 11.001l-9.426 5.892c-0.201 0.126-0.446 0.2-0.708 0.2s-0.506-0.075-0.713-0.204l0.006 0.003-9.426-5.892c-0.336-0.201-0.557-0.562-0.557-0.975 0-0.625 0.507-1.132 1.132-1.132 0.233 0 0.449 0.070 0.629 0.19l-0.004-0.003 8.933 5.586 8.933-5.588c0.176-0.118 0.392-0.188 0.624-0.188 0.625 0 1.132 0.507 1.132 1.132 0 0.413-0.221 0.775-0.552 0.972l-0.005 0.003z"></path>
        </symbol>
        <symbol id="icon-modal-person" viewBox="0 0 32 32">
            <path d="M16 16c2.946 0 5.333-2.388 5.333-5.333s-2.388-5.333-5.333-5.333v0c-2.946 0-5.333 2.388-5.333 5.333s2.388 5.333 5.333 5.333v0zM16 18.667c-3.561 0-10.667 1.787-10.667 5.333v1.333c0 0.732 0.599 1.333 1.333 1.333h18.667c0.732 0 1.333-0.601 1.333-1.333v-1.333c0-3.547-7.108-5.333-10.667-5.333z"></path>
        </symbol>
        <symbol id="icon-modal-phone" viewBox="0 0 32 32">
            <path d="M24.882 19.774l-3.268-0.373c-0.090-0.011-0.194-0.018-0.3-0.018-0.707 0-1.347 0.287-1.81 0.75l-2.368 2.368c-3.669-1.894-6.585-4.81-8.427-8.372l-0.051-0.108 2.382-2.377c0.463-0.463 0.75-1.103 0.75-1.81 0-0.106-0.006-0.21-0.019-0.312l0.001 0.012-0.373-3.243c-0.155-1.287-1.24-2.276-2.557-2.276-0.001 0-0.002 0-0.003 0h-2.226c-1.454 0-2.663 1.209-2.574 2.661 0.683 10.987 9.47 19.762 20.444 20.444 1.452 0.089 2.663-1.12 2.663-2.574v-2.226c0-0.004 0-0.008 0-0.012 0-1.308-0.985-2.386-2.253-2.532l-0.012-0.001z"></path>
        </symbol>
        <symbol id="icon-burger" viewBox="0 0 32 32">
            <path d="M6.4 11.734v-2.134h19.2v2.134h-19.2zM6.4 17.066h19.2v-2.133h-19.2v2.133zM6.4 22.4h19.2v-2.134h-19.2v2.134z"></path>
        </symbol>
        <symbol id="icon-cross" viewBox="0 0 32 32">
            <path d="M23.734 10.304l-1.504-1.504-5.963 5.962-5.962-5.962-1.504 1.504 5.962 5.962-5.962 5.963 1.504 1.504 5.962-5.963 5.963 5.963 1.504-1.504-5.963-5.963 5.963-5.962z"></path>
        </symbol>
    </defs>
</svg>